<?xml version="1.0" encoding="UTF-8"?><svg id="Layer_1" xmlns="http://www.w3.org/2000/svg" viewBox="0 0 965.37 771.19"><defs><style>.cls-1{fill:#d75c5c;}.cls-1,.cls-2,.cls-3{stroke:#231f20;stroke-miterlimit:10;}.cls-2{fill:#6fc05e;}.cls-3{fill:#4d4da1;}</style></defs><path class="cls-1" d="m414.77,37.68l153,14-104,81-39,61,17,66v44l-35,59-26,93,50,54-37,76,71,101v52h-60l163,18,144,14,118-52s-12-78,5-65,90,38,90,38c0,0-2-55-5-57s-68-73-64-73,103,4,103,4c0,0,7-80,6-85s.1-251,.1-251c0,0-74.1-129-77.1-124s-18,56-22,60-104,47-104,47c0,0-23-25-27-28s-1-74,5-79,98-36,98-36l110-32L851.77.68h-168s1,55,0,60-39,48-39,48L629.77.68s-36,13-43,13-172,24-172,24Z"/><path class="cls-3" d="m522.77,182.68l125,13,31,58s127,12,139,8,81,46,81,46l38,111-20,105s-215,32-212,44,92,115,93,123-116,48-116,48h-126c-4,0-89-99-91-103s140-122,140-122c0,0-59-70-70-73s-154,4-154,4c0,0,89-126,92-130s54-11,54-11l-89-99,44-52,41,30Z"/><rect class="cls-2" x="10.77" y="158.68" width="231" height="251"/><polygon class="cls-2" points="345.77 743.68 .77 631.68 100.77 473.68 249.77 581.68 345.77 743.68"/><ellipse class="cls-2" cx="285.02" cy="63.18" rx="103.75" ry="62.5"/></svg>